{
    "asset" : {
        "generator" : "Khronos glTF Blender I/O v1.1.46",
        "version" : "2.0"
    },
    "scene" : 0,
    "scenes" : [
        {
            "name" : "Scene",
            "nodes" : [
                0
            ]
        }
    ],
    "nodes" : [
        {
            "mesh" : 0,
            "name" : "Cube.004",
            "rotation" : [
                0.3263956308364868,
                -0.3249218463897705,
                0.02572549693286419,
                0.8872597813606262
            ],
            "scale" : [
                1.7759877443313599,
                1.7759877443313599,
                1.7759877443313599
            ],
            "translation" : [
                20.448942184448242,
                0.3701886236667633,
                0
            ]
        }
    ],
    "materials" : [
        {
            "doubleSided" : true,
            "emissiveFactor" : [
                0,
                0,
                0
            ],
            "name" : "A4",
            "pbrMetallicRoughness" : {
                "baseColorFactor" : [
                    0.4072401225566864,
                    0.10332400351762772,
                    0.03528003767132759,
                    1
                ],
                "metallicFactor" : 0,
                "roughnessFactor" : 0.6272727251052856
            }
        }
    ],
    "meshes" : [
        {
            "name" : "Cube.004",
            "primitives" : [
                {
                    "attributes" : {
                        "POSITION" : 0,
                        "NORMAL" : 1,
                        "TEXCOORD_0" : 2
                    },
                    "indices" : 3,
                    "material" : 0
                }
            ]
        }
    ],
    "accessors" : [
        {
            "bufferView" : 0,
            "componentType" : 5126,
            "count" : 168,
            "max" : [
                1,
                1,
                1
            ],
            "min" : [
                -1,
                -1,
                -1
            ],
            "type" : "VEC3"
        },
        {
            "bufferView" : 1,
            "componentType" : 5126,
            "count" : 168,
            "type" : "VEC3"
        },
        {
            "bufferView" : 2,
            "componentType" : 5126,
            "count" : 168,
            "type" : "VEC2"
        },
        {
            "bufferView" : 3,
            "componentType" : 5123,
            "count" : 324,
            "type" : "SCALAR"
        }
    ],
    "bufferViews" : [
        {
            "buffer" : 0,
            "byteLength" : 2016,
            "byteOffset" : 0
        },
        {
            "buffer" : 0,
            "byteLength" : 2016,
            "byteOffset" : 2016
        },
        {
            "buffer" : 0,
            "byteLength" : 1344,
            "byteOffset" : 4032
        },
        {
            "buffer" : 0,
            "byteLength" : 648,
            "byteOffset" : 5376
        }
    ],
    "buffers" : [
        {
            "byteLength" : 6024,
            "uri" : "data:application/octet-stream;base64,"
        }
    ]
}
