{
    "asset" : {
        "generator" : "Khronos glTF Blender I/O v1.1.46",
        "version" : "2.0"
    },
    "scene" : 0,
    "scenes" : [
        {
            "name" : "Scene",
            "nodes" : [
                0
            ]
        }
    ],
    "nodes" : [
        {
            "mesh" : 0,
            "name" : "Sphere.017",
            "rotation" : [
                0.10867395997047424,
                -0.38134056329727173,
                -0.19994698464870453,
                0.8959857821464539
            ],
            "scale" : [
                1.219643473625183,
                0.30976009368896484,
                1.2196433544158936
            ],
            "translation" : [
                9.809773445129395,
                -69.78302764892578,
                -9.336803486803547e-06
            ]
        }
    ],
    "materials" : [
        {
            "doubleSided" : true,
            "emissiveFactor" : [
                0,
                0,
                0
            ],
            "name" : "A4",
            "pbrMetallicRoughness" : {
                "baseColorFactor" : [
                    0.23074020445346832,
                    0.4072403013706207,
                    0.23074015974998474,
                    1
                ],
                "metallicFactor" : 0,
                "roughnessFactor" : 0.6272727251052856
            }
        }
    ],
    "meshes" : [
        {
            "name" : "Sphere.017",
            "primitives" : [
                {
                    "attributes" : {
                        "POSITION" : 0,
                        "NORMAL" : 1,
                        "TEXCOORD_0" : 2
                    },
                    "indices" : 3,
                    "material" : 0
                }
            ]
        }
    ],
    "accessors" : [
        {
            "bufferView" : 0,
            "componentType" : 5126,
            "count" : 55552,
            "max" : [
                3.1060891151428223,
                8.283045768737793,
                2.1036951541900635
            ],
            "min" : [
                -0.9999990463256836,
                -8.28304672241211,
                -2.1036949157714844
            ],
            "type" : "VEC3"
        },
        {
            "bufferView" : 1,
            "componentType" : 5126,
            "count" : 55552,
            "type" : "VEC3"
        },
        {
            "bufferView" : 2,
            "componentType" : 5126,
            "count" : 55552,
            "type" : "VEC2"
        },
        {
            "bufferView" : 3,
            "componentType" : 5123,
            "count" : 80640,
            "type" : "SCALAR"
        }
    ],
    "bufferViews" : [
        {
            "buffer" : 0,
            "byteLength" : 666624,
            "byteOffset" : 0
        },
        {
            "buffer" : 0,
            "byteLength" : 666624,
            "byteOffset" : 666624
        },
        {
            "buffer" : 0,
            "byteLength" : 444416,
            "byteOffset" : 1333248
        },
        {
            "buffer" : 0,
            "byteLength" : 161280,
            "byteOffset" : 1777664
        }
    ],
    "buffers" : [
        {
            "byteLength" : 1938944,
            "uri" : "data:application/octet-stream;base64,"
        }
    ]
}
