<?xml version="1.0" standalone="no"?>
<!DOCTYPE svg PUBLIC "-//W3C//DTD SVG 20010904//EN"
 "http://www.w3.org/TR/2001/REC-SVG-20010904/DTD/svg10.dtd">
<svg version="1.0" xmlns="http://www.w3.org/2000/svg"
 width="282.000000pt" height="282.000000pt" viewBox="0 0 282.000000 282.000000"
 preserveAspectRatio="xMidYMid meet">
<metadata>
Created by potrace 1.14, written by Peter Selinger 2001-2017
</metadata>
<g transform="translate(0.000000,282.000000) scale(0.100000,-0.100000)"
fill="#000000" stroke="none">
<path d="M80 1490 l0 -1330 93 0 c103 -1 2548 0 2560 0 4 0 7 599 7 1330 l0
1330 -1330 0 -1330 0 0 -1330z"/>
<path d="M913 135 c0 -8 4 -12 9 -9 5 3 6 10 3 15 -9 13 -12 11 -12 -6z"/>
<path d="M1873 135 c0 -8 4 -12 9 -9 5 3 6 10 3 15 -9 13 -12 11 -12 -6z"/>
</g>
</svg>
